<?xml version="1.0" encoding="UTF-8"?>
<svg version="1.1" xmlns="http://www.w3.org/2000/svg" width="180" height="180">
<path d="M0 0 C3.7118808 1.27308308 5.45423121 3.53454202 7.75 6.625 C8.67039062 7.85089844 8.67039062 7.85089844 9.609375 9.1015625 C10.29773438 10.04128906 10.29773438 10.04128906 11 11 C8.64947669 13.5260494 6.10517746 15.38392516 3.25 17.3125 C-9.68359604 26.34161421 -17.48555075 36.84682864 -20.75 52.625 C-20.8325 53.73875 -20.915 54.8525 -21 56 C-21.1546875 57.9490625 -21.1546875 57.9490625 -21.3125 59.9375 C-21.06984499 74.15708337 -15.43436959 87.45853164 -5.8125 97.8125 C5.99677707 108.82385294 20.34281631 113.67294872 36.31347656 113.47070312 C51.59120296 112.85776831 65.51987664 106.73608383 75.96875 95.4921875 C84.33562114 85.22668022 90.04545135 71.5659278 89.25390625 58.05859375 C89.17011719 57.37925781 89.08632812 56.69992188 89 56 C88.90589844 55.22785156 88.81179687 54.45570312 88.71484375 53.66015625 C86.42745993 39.60273916 79.87660483 28.12979399 68.4375 19.625 C64.40571454 16.85104176 60.31723644 14.3025261 56 12 C59 8 62 4 65 0 C76.36498917 2.69170796 87.07853499 12.78315753 93.265625 22.3671875 C103.25652322 38.82438557 107.36126644 57.56264941 103.12890625 76.6484375 C98.17837936 94.88416742 86.63600278 109.58437935 70.4921875 119.09375 C53.67930973 128.27124928 34.39149735 131.03887185 15.5 127 C-4.36402605 120.75953164 -20.50825908 108.13590884 -30.234375 89.640625 C-37.51687596 74.99831416 -38.52299936 57.1864131 -34.4375 41.375 C-28.49988551 24.22189148 -16.58391173 8.29195587 0 0 Z " fill="#D9AE4C" transform="translate(56,52)"/>
<path d="M0 0 C7.26 0 14.52 0 22 0 C25.7697319 8.84033603 29.21700687 17.75581974 32.50415039 26.78466797 C33.3223166 29.026903 34.15031693 31.26536038 34.97851562 33.50390625 C35.50320541 34.93988462 36.02731589 36.37607483 36.55078125 37.8125 C36.79758133 38.47604492 37.04438141 39.13958984 37.29866028 39.82324219 C38.49329469 43.13698576 39 45.41692974 39 49 C35.9881398 47.67789709 34.19459869 46.36610497 32.15234375 43.796875 C31.63526855 43.15347168 31.11819336 42.51006836 30.58544922 41.84716797 C30.04162598 41.15510254 29.49780273 40.46303711 28.9375 39.75 C28.36531738 39.03344238 27.79313477 38.31688477 27.20361328 37.57861328 C25.46111279 35.3919176 23.72932188 33.19712626 22 31 C21.03001059 29.77338794 20.05996255 28.54682224 19.08984375 27.3203125 C17.29283498 25.04386716 15.50507292 22.76053926 13.72265625 20.47265625 C11.79546464 18.00271321 9.84107923 15.55703207 7.87109375 13.12109375 C7.35949707 12.48381348 6.84790039 11.8465332 6.32080078 11.18994141 C5.33664288 9.9649213 4.34696588 8.74430884 3.35107422 7.52880859 C0 3.33720091 0 3.33720091 0 0 Z " fill="#95B4D0" transform="translate(50,31)"/>
<path d="M0 0 C7.26 0 14.52 0 22 0 C21.08588371 3.65646515 20.70260096 4.70410452 18.4453125 7.3984375 C17.9186499 8.03531494 17.3919873 8.67219238 16.84936523 9.32836914 C16.28032471 10.00375732 15.71128418 10.67914551 15.125 11.375 C13.9300171 12.81820575 12.7360227 14.26223049 11.54296875 15.70703125 C10.94403809 16.42971191 10.34510742 17.15239258 9.72802734 17.89697266 C7.24875752 20.91426996 4.83824447 23.98260047 2.4375 27.0625 C-3.31460225 34.42348498 -9.15303963 41.71425881 -15 49 C-15.66 48.67 -16.32 48.34 -17 48 C-16.23505062 42.97071451 -14.41224007 38.36138306 -12.65625 33.61328125 C-12.32709595 32.71506149 -11.99794189 31.81684174 -11.65881348 30.8914032 C-10.96452007 28.99883236 -10.26847781 27.10690229 -9.57080078 25.21557617 C-8.50044749 22.3137132 -7.43530734 19.40997891 -6.37109375 16.50585938 C-5.69561458 14.6665557 -5.01984343 12.82735922 -4.34375 10.98828125 C-4.02394165 10.11746414 -3.7041333 9.24664703 -3.37463379 8.34944153 C-3.07762573 7.54488022 -2.78061768 6.74031891 -2.47460938 5.91137695 C-2.08275452 4.84811943 -2.08275452 4.84811943 -1.6829834 3.76338196 C-1 2 -1 2 0 0 Z " fill="#A1C2E4" transform="translate(108,31)"/>
<path d="M0 0 C1.00023193 0.00523682 2.00046387 0.01047363 3.03100586 0.01586914 C4.1105957 0.0190918 5.19018555 0.02231445 6.30249023 0.02563477 C8.00695312 0.03820312 8.00695312 0.03820312 9.74584961 0.05102539 C11.45611328 0.05779297 11.45611328 0.05779297 13.20092773 0.06469727 C16.02845312 0.07652792 18.85587601 0.09301129 21.68334961 0.11352539 C22.68334961 2.11352539 22.68334961 2.11352539 21.80297852 5.06274414 C21.3432666 6.29637695 20.88355469 7.53000977 20.40991211 8.80102539 C20.16671234 9.4593335 19.92351257 10.1176416 19.67294312 10.79589844 C18.89184322 12.90449015 18.10009872 15.0089123 17.30834961 17.11352539 C16.78163574 18.5325469 16.25558565 19.95181497 15.73022461 21.37133789 C11.90526323 31.66969816 11.90526323 31.66969816 10.68334961 34.11352539 C10.02334961 34.11352539 9.36334961 34.11352539 8.68334961 34.11352539 C4.34886351 23.2086079 0.2610948 12.29191821 -3.31665039 1.11352539 C-2.31665039 0.11352539 -2.31665039 0.11352539 0 0 Z " fill="#74A3D6" transform="translate(80.316650390625,30.886474609375)"/>
<path d="M0 0 C7.26 0 14.52 0 22 0 C21.05540186 3.77839255 20.47621469 4.98964825 18.12890625 7.85546875 C17.55462891 8.55994141 16.98035156 9.26441406 16.38867188 9.99023438 C15.78603516 10.71533203 15.18339844 11.44042969 14.5625 12.1875 C13.96373047 12.92419922 13.36496094 13.66089844 12.74804688 14.41992188 C8.27809085 19.86095458 8.27809085 19.86095458 6 21 C1.93846154 14.84615385 1.93846154 14.84615385 2.25 10.5625 C2.4975 9.716875 2.745 8.87125 3 8 C1.02 8 -0.96 8 -3 8 C-2.01 5.36 -1.02 2.72 0 0 Z " fill="#82A8DB" transform="translate(108,31)"/>
<path d="M0 0 C7.59 0 15.18 0 23 0 C22.07041397 4.64793016 20.58784798 8.17787052 18.4375 12.3125 C18.10814453 12.95767578 17.77878906 13.60285156 17.43945312 14.26757812 C16.63175745 15.84785228 15.81662387 17.42432105 15 19 C11.17242836 15.33104845 7.88897534 11.47120452 4.6875 7.25 C4.23310547 6.66089844 3.77871094 6.07179688 3.31054688 5.46484375 C0 1.13375235 0 1.13375235 0 0 Z " fill="#C2E1F4" transform="translate(91,5)"/>
<path d="M0 0 C7.26 0 14.52 0 22 0 C21.07199276 3.71202894 20.56696366 4.87612858 18.27734375 7.671875 C17.73916016 8.33574219 17.20097656 8.99960938 16.64648438 9.68359375 C16.08251953 10.36550781 15.51855469 11.04742187 14.9375 11.75 C14.36966797 12.44738281 13.80183594 13.14476562 13.21679688 13.86328125 C11.81712814 15.58052188 10.41144064 17.29243295 9 19 C5.97096471 16.16381276 4.54007851 13.28787585 2.8125 9.5 C2.28269531 8.3553125 1.75289063 7.210625 1.20703125 6.03125 C0 3 0 3 0 0 Z " fill="#83A8CF" transform="translate(66,5)"/>
<path d="M0 0 C0.99 0 1.98 0 3 0 C5.31 5.61 7.62 11.22 10 17 C9 18 9 18 7.14233398 18.11352539 C6.35157471 18.10828857 5.56081543 18.10305176 4.74609375 18.09765625 C3.89208984 18.09443359 3.03808594 18.09121094 2.15820312 18.08789062 C1.26037109 18.07951172 0.36253906 18.07113281 -0.5625 18.0625 C-1.46419922 18.05798828 -2.36589844 18.05347656 -3.29492188 18.04882812 C-5.53001314 18.03700225 -7.76497437 18.0205222 -10 18 C-8.6486755 13.33688024 -6.74207024 9.66680986 -4.0625 5.625 C-3.37285156 4.56539062 -2.68320312 3.50578125 -1.97265625 2.4140625 C-0.99619141 1.21910156 -0.99619141 1.21910156 0 0 Z " fill="#87A4C8" transform="translate(60,9)"/>
<path d="M0 0 C3.32624874 1.10874958 3.57359199 1.45665697 5.26171875 4.30859375 C5.85629883 5.30536133 5.85629883 5.30536133 6.46289062 6.32226562 C7.06907227 7.36930664 7.06907227 7.36930664 7.6875 8.4375 C8.10322266 9.13166016 8.51894531 9.82582031 8.94726562 10.54101562 C12 15.71913485 12 15.71913485 12 18 C5.73 18 -0.54 18 -7 18 C-7.33 17.34 -7.66 16.68 -8 16 C-7.37915039 14.30419922 -7.37915039 14.30419922 -6.34765625 12.3046875 C-5.98349609 11.58925781 -5.61933594 10.87382812 -5.24414062 10.13671875 C-4.85419922 9.39035156 -4.46425781 8.64398438 -4.0625 7.875 C-3.67642578 7.12089844 -3.29035156 6.36679688 -2.89257812 5.58984375 C-1.93547868 3.72290903 -0.96863894 1.86097372 0 0 Z " fill="#CAEFF8" transform="translate(118,9)"/>
<path d="M0 0 C3.93313346 1.31104449 5.36757006 3.82495822 7.6875 7.0625 C8.10322266 7.63033203 8.51894531 8.19816406 8.94726562 8.78320312 C9.97140082 10.18403173 10.98657535 11.59140348 12 13 C11.67 13.66 11.34 14.32 11 15 C4.07 15 -2.86 15 -10 15 C-8.2446196 10.611549 -6.80648602 8.23365244 -3.875 4.6875 C-3.15054688 3.80449219 -2.42609375 2.92148438 -1.6796875 2.01171875 C-1.12539062 1.34785156 -0.57109375 0.68398437 0 0 Z " fill="#86B3D8" transform="translate(89,12)"/>
<path d="M0 0 C1.00023193 0.00523682 2.00046387 0.01047363 3.03100586 0.01586914 C4.1105957 0.0190918 5.19018555 0.02231445 6.30249023 0.02563477 C8.00695312 0.03820312 8.00695312 0.03820312 9.74584961 0.05102539 C11.45611328 0.05779297 11.45611328 0.05779297 13.20092773 0.06469727 C16.02845312 0.07652792 18.85587601 0.09301129 21.68334961 0.11352539 C22.68334961 2.11352539 22.68334961 2.11352539 21.90600586 4.71508789 C21.33172852 6.21168945 21.33172852 6.21168945 20.74584961 7.73852539 C20.36557617 8.74141602 19.98530273 9.74430664 19.59350586 10.77758789 C19.2931543 11.54844727 18.99280273 12.31930664 18.68334961 13.11352539 C18.51706055 12.49864258 18.35077148 11.88375977 18.17944336 11.25024414 C15.86156823 7.93985852 12.5010051 7.70876229 8.74584961 6.92602539 C7.29909261 6.59983349 5.85247254 6.27303352 4.40600586 5.94555664 C3.1775293 5.67098633 1.94905273 5.39641602 0.68334961 5.11352539 C-0.30665039 4.78352539 -1.29665039 4.45352539 -2.31665039 4.11352539 C-2.64665039 3.12352539 -2.97665039 2.13352539 -3.31665039 1.11352539 C-2.31665039 0.11352539 -2.31665039 0.11352539 0 0 Z " fill="#A9CAE6" transform="translate(80.316650390625,30.886474609375)"/>
<path d="M0 0 C1.98 0 3.96 0 6 0 C5.9175 0.825 5.835 1.65 5.75 2.5 C6.07235989 7.01303847 7.79294651 10.11795056 10 14 C8.35 15.32 6.7 16.64 5 18 C2.03 16.35 -0.94 14.7 -4 13 C-3.40895235 8.15340923 -2.02055843 4.39251833 0 0 Z " fill="#DEF7FC" transform="translate(105,39)"/>
<path d="M0 0 C3.95020209 0.55119099 7.48998083 1.06726793 11 3 C12.58203125 5.8984375 12.58203125 5.8984375 13.8125 9.375 C14.23144531 10.51710938 14.65039062 11.65921875 15.08203125 12.8359375 C16 16 16 16 16 20 C12.90562073 18.65173475 11.09473565 17.25203513 8.984375 14.62890625 C8.45585938 13.97212891 7.92734375 13.31535156 7.3828125 12.63867188 C6.84398438 11.95353516 6.30515625 11.26839844 5.75 10.5625 C5.19570312 9.88123047 4.64140625 9.19996094 4.0703125 8.49804688 C3.54695313 7.83998047 3.02359375 7.18191406 2.484375 6.50390625 C1.76846191 5.60393921 1.76846191 5.60393921 1.03808594 4.68579102 C0 3 0 3 0 0 Z " fill="#B0D9E4" transform="translate(73,60)"/>
<path d="M0 0 C4.3413184 0.79181279 8.15739059 1.79254353 12 4 C14.20745647 7.84260941 15.20818721 11.6586816 16 16 C12.77651121 16.11310487 10.95122364 16.14141402 8 15 C3.77841076 10.6499974 0.85871443 6.04361041 0 0 Z " fill="#C1D6DF" transform="translate(65,39)"/>
<path d="M0 0 C6.54849313 1.16204993 12.74538144 2.73383385 19 5 C19.33 7.31 19.66 9.62 20 12 C19.01 12.495 19.01 12.495 18 13 C18 11.68 18 10.36 18 9 C16.845 9.04125 15.69 9.0825 14.5 9.125 C10.05518699 9.14087433 6.26275869 8.21793105 2 7 C1.34 4.69 0.68 2.38 0 0 Z " fill="#849DB9" transform="translate(78,35)"/>
<path d="M0 0 C4.05281712 1.22527029 7.44360764 2.69880494 11 5 C10.07161713 6.31896465 9.13194268 7.62998689 8.1875 8.9375 C7.40439453 10.03384766 7.40439453 10.03384766 6.60546875 11.15234375 C5 13 5 13 2 14 C1.71125 13.195625 1.4225 12.39125 1.125 11.5625 C0.26737432 8.8673532 0.26737432 8.8673532 -2 8 C-1.47731534 5.23723823 -0.89130413 2.6739124 0 0 Z " fill="#C7D7E0" transform="translate(100,52)"/>
<path d="M0 0 C0 0.66 0 1.32 0 2 C1.98 2 3.96 2 6 2 C5.48964169 6.3890815 4.47785723 9.33708062 2 13 C-1.25516428 9.83525695 -4.32008793 6.67247209 -7 3 C-7 2.34 -7 1.68 -7 1 C-4 0 -4 0 0 0 Z " fill="#B9D5EC" transform="translate(104,11)"/>
<path d="M0 0 C3.37826318 3.01304554 5.4900217 5.58363236 7.109375 9.8203125 C9.0960064 14.68233145 11.62471169 19.31860653 14 24 C10.79785512 22.93261837 10.28971025 22.43506653 8.3359375 19.875 C7.61277344 18.93914063 7.61277344 18.93914063 6.875 17.984375 C6.38 17.32953125 5.885 16.6746875 5.375 16 C4.3831608 14.70806586 3.39099034 13.41638595 2.3984375 12.125 C1.60695312 11.09375 0.81546875 10.0625 0 9 C-0.33 8.67 -0.66 8.34 -1 8 C-1.125 4.5 -1.125 4.5 -1 1 C-0.67 0.67 -0.34 0.34 0 0 Z " fill="#BBE6F7" transform="translate(57,34)"/>
<path d="M0 0 C0.99 0.144375 1.98 0.28875 3 0.4375 C6.99409465 1.00925179 10.99532937 1.50819834 15 2 C15.33 3.98 15.66 5.96 16 8 C15.34 7.773125 14.68 7.54625 14 7.3125 C9.69330584 6.86388603 6.96722453 8.31897266 3 10 C2.01 6.7 1.02 3.4 0 0 Z " fill="#A6BCCE" transform="translate(81,42)"/>
<path d="M0 0 C2.73885616 3.4235702 5.02874539 6.47979975 7.25 10.1875 C8.03117188 11.47720703 8.03117188 11.47720703 8.828125 12.79296875 C10 15 10 15 10 17 C7.03 16.67 4.06 16.34 1 16 C0.67 10.72 0.34 5.44 0 0 Z " fill="#6795DA" transform="translate(120,10)"/>
<path d="M0 0 C4.95 0 9.9 0 15 0 C13.86634892 4.53460431 12.35806626 5.90024653 9 9 C7.49704815 7.69088122 5.99770689 6.37761608 4.5 5.0625 C3.6646875 4.33160156 2.829375 3.60070313 1.96875 2.84765625 C1.3190625 2.23792969 0.669375 1.62820312 0 1 C0 0.67 0 0.34 0 0 Z " fill="#E1F7FC" transform="translate(115,31)"/>
<path d="M0 0 C2.64179275 3.19184343 4.14549017 6.41581339 5.6875 10.25 C6.34298828 11.86648437 6.34298828 11.86648437 7.01171875 13.515625 C7.33785156 14.33546875 7.66398437 15.1553125 8 16 C4.61682513 16.97591583 2.4342662 16.85856655 -1 16 C-0.649375 15.443125 -0.29875 14.88625 0.0625 14.3125 C1.24823358 11.3876905 0.89774928 9.99249759 0 7 C-0.99083967 4.76591887 -0.99083967 4.76591887 -2 3 C-1.34 2.01 -0.68 1.02 0 0 Z " fill="#86ACD2" transform="translate(62,10)"/>
<path d="M0 0 C5.86193582 4.07078877 8.69921934 9.28938975 11 16 C11 18 11 18 10 21 C8.50865522 18.63192527 7.03202328 16.25656428 5.5625 13.875 C5.14162109 13.20984375 4.72074219 12.5446875 4.28710938 11.859375 C1.85995962 7.8982666 0.4052292 4.73012995 0 0 Z " fill="#91B0D3" transform="translate(61,37)"/>
<path d="M0 0 C-0.66 0.66 -1.32 1.32 -2 2 C-1.28972656 2.17015625 -0.57945313 2.3403125 0.15234375 2.515625 C1.07144531 2.75796875 1.99054688 3.0003125 2.9375 3.25 C4.31228516 3.59804688 4.31228516 3.59804688 5.71484375 3.953125 C8 5 8 5 8.81640625 7.109375 C8.87699219 7.73328125 8.93757813 8.3571875 9 9 C5.06555826 8.38524348 1.55853367 7.15507147 -2.1328125 5.71875 C-3.73853675 5.10064694 -5.36771278 4.54409574 -7 4 C-8.1875 1.9375 -8.1875 1.9375 -9 0 C-5.93109813 -1.53445094 -3.29905734 -0.54984289 0 0 Z " fill="#A6C5D5" transform="translate(67,34)"/>
<path d="M0 0 C2.64 0 5.28 0 8 0 C7.37560491 3.30037405 6.20535848 5.5286248 4.25 8.25 C3.76015625 8.95640625 3.2703125 9.6628125 2.765625 10.390625 C1 12 1 12 -1.703125 12.234375 C-2.46109375 12.15703125 -3.2190625 12.0796875 -4 12 C-4 11.34 -4 10.68 -4 10 C-2.03852126 8.61061923 -0.03833424 7.2739589 2 6 C1.34 4.02 0.68 2.04 0 0 Z " fill="#88B3D9" transform="translate(80,5)"/>
<path d="M0 0 C3.92234364 0.54730376 7.45779454 1.17829434 11 3 C11.33 3.99 11.66 4.98 12 6 C9.61283126 7.50303217 8.28934794 8.01411453 5.4375 7.875 C2.45715294 6.80513183 1.53118943 5.7400232 0 3 C0 2.01 0 1.02 0 0 Z " fill="#E6F1F8" transform="translate(73,60)"/>
<path d="M0 0 C4.59195094 1.14798774 4.87820524 1.73528573 7.25 5.5625 C8.03117187 6.80193359 8.03117187 6.80193359 8.828125 8.06640625 C9.21484375 8.70449219 9.6015625 9.34257812 10 10 C9 11 9 11 5.9375 11.0625 C4.968125 11.041875 3.99875 11.02125 3 11 C2.01 7.37 1.02 3.74 0 0 Z " fill="#CDEFFA" transform="translate(91,16)"/>
<path d="M0 0 C0.33 0 0.66 0 1 0 C1.33 3.96 1.66 7.92 2 12 C-0.64 12 -3.28 12 -6 12 C-4.68315519 7.39104317 -2.84801255 3.85859765 0 0 Z " fill="#94CCEC" transform="translate(56,15)"/>
<path d="M0 0 C1.21236328 0.02707031 1.21236328 0.02707031 2.44921875 0.0546875 C3.37154297 0.08949219 3.37154297 0.08949219 4.3125 0.125 C3.4375 4.875 3.4375 4.875 2.3125 7.125 C0.6625 7.125 -0.9875 7.125 -2.6875 7.125 C-2.0275 5.805 -1.3675 4.485 -0.6875 3.125 C-2.9975 3.785 -5.3075 4.445 -7.6875 5.125 C-7.6875 4.135 -7.6875 3.145 -7.6875 2.125 C-4.48369983 -0.01086678 -3.66810033 -0.10632175 0 0 Z " fill="#CBEFFC" transform="translate(109.6875,4.875)"/>
<path d="M0 0 C3.63 0 7.26 0 11 0 C11 0.66 11 1.32 11 2 C11.639375 2.28875 12.27875 2.5775 12.9375 2.875 C15 4 15 4 16 6 C15.29488281 5.85691406 14.58976562 5.71382812 13.86328125 5.56640625 C10.97588399 4.99522944 8.08390614 4.46094689 5.1875 3.9375 C4.21167969 3.76089844 3.23585938 3.58429687 2.23046875 3.40234375 C1.49441406 3.26957031 0.75835937 3.13679688 0 3 C0 2.01 0 1.02 0 0 Z " fill="#C7E6F7" transform="translate(78,31)"/>
<path d="M0 0 C0 0.66 0 1.32 0 2 C1.98 2 3.96 2 6 2 C6 2.66 6 3.32 6 4 C3.69 4.33 1.38 4.66 -1 5 C-0.01 5.66 0.98 6.32 2 7 C-0.8125 7.25 -0.8125 7.25 -4 7 C-5.875 5.125 -5.875 5.125 -7 3 C-7 2.34 -7 1.68 -7 1 C-4 0 -4 0 0 0 Z " fill="#A4C6E7" transform="translate(104,11)"/>
<path d="M0 0 C6.49913644 1.34887737 6.49913644 1.34887737 8.875 4.4375 C10 7 10 7 11 10 C9.35 9.67 7.7 9.34 6 9 C5.67 8.01 5.34 7.02 5 6 C4.34 6 3.68 6 3 6 C2.01 4.02 1.02 2.04 0 0 Z " fill="#D2E8F3" transform="translate(70,45)"/>
<path d="M0 0 C2.1875 -0.3125 2.1875 -0.3125 5 0 C7.625 2.3125 7.625 2.3125 10 5 C10.598125 5.556875 11.19625 6.11375 11.8125 6.6875 C13 8 13 8 13 10 C8.60249328 9.49259538 6.13051078 6.91706686 3 4 C3 3.34 3 2.68 3 2 C2.01 2 1.02 2 0 2 C0 1.34 0 0.68 0 0 Z " fill="#A1C8EB" transform="translate(108,31)"/>
<path d="M0 0 C2 0 2 0 4.125 1.875 C6 4 6 4 6 6 C5.01 6.33 4.02 6.66 3 7 C3.515625 7.598125 4.03125 8.19625 4.5625 8.8125 C5.036875 9.534375 5.51125 10.25625 6 11 C5.67 11.99 5.34 12.98 5 14 C4.34 14 3.68 14 3 14 C0.56574762 9.03006806 -0.34615998 5.65394631 0 0 Z " fill="#81A3CD" transform="translate(112,36)"/>
<path d="M0 0 C2.31 0 4.62 0 7 0 C8.25541557 3.76624671 7.37061958 5.37188934 6 9 C0.42857143 3.85714286 0.42857143 3.85714286 0 0 Z " fill="#93BCDA" transform="translate(50,31)"/>
<path d="M0 0 C0.33 0 0.66 0 1 0 C1.0272415 1.41655793 1.04650467 2.83327045 1.0625 4.25 C1.07410156 5.03890625 1.08570312 5.8278125 1.09765625 6.640625 C1.00385306 8.90691002 0.63241063 10.8288895 0 13 C-1.65 12.67 -3.3 12.34 -5 12 C-3.35 8.04 -1.7 4.08 0 0 Z " fill="#94B4D3" transform="translate(115,14)"/>
<path d="M0 0 C2.64 0 5.28 0 8 0 C7.01 2.64 6.02 5.28 5 8 C4.34 8 3.68 8 3 8 C2.01 5.36 1.02 2.72 0 0 Z " fill="#9DC0E3" transform="translate(86,57)"/>
<path d="M0 0 C1.2065625 0.0309375 1.2065625 0.0309375 2.4375 0.0625 C3.0975 3.0325 3.7575 6.0025 4.4375 9.0625 C3.4475 9.0625 2.4575 9.0625 1.4375 9.0625 C0.05078125 7.3125 0.05078125 7.3125 -1.25 5.0625 C-1.68699219 4.32 -2.12398438 3.5775 -2.57421875 2.8125 C-2.90035156 2.235 -3.22648437 1.6575 -3.5625 1.0625 C-2.5625 0.0625 -2.5625 0.0625 0 0 Z " fill="#75A2D8" transform="translate(89.5625,17.9375)"/>
<path d="M0 0 C1.65 0 3.3 0 5 0 C5.99 2.31 6.98 4.62 8 7 C5.6875 7.25 5.6875 7.25 3 7 C1.1875 5.1875 1.1875 5.1875 0 3 C0 2.01 0 1.02 0 0 Z " fill="#78ACD4" transform="translate(75,5)"/>
<path d="M0 0 C4 5 4 5 4 7 C3.34 7 2.68 7 2 7 C2.59861742 9.35171131 3.26924352 11.6859378 4 14 C4.66 14.33 5.32 14.66 6 15 C6 15.66 6 16.32 6 17 C4.35 16.67 2.7 16.34 1 16 C0.67 10.72 0.34 5.44 0 0 Z " fill="#9BBEE3" transform="translate(120,10)"/>
<path d="M0 0 C1.32 0.66 2.64 1.32 4 2 C4 2.99 4 3.98 4 5 C5.98 5.66 7.96 6.32 10 7 C9.34 7.66 8.68 8.32 8 9 C5.03 7.35 2.06 5.7 -1 4 C-0.67 2.68 -0.34 1.36 0 0 Z " fill="#BDE4F6" transform="translate(102,48)"/>
<path d="M0 0 C1.98 0 3.96 0 6 0 C6.33 0.66 6.66 1.32 7 2 C6.0625 4.125 6.0625 4.125 5 6 C3.68 6 2.36 6 1 6 C0.67 4.02 0.34 2.04 0 0 Z " fill="#BEE4F5" transform="translate(96,31)"/>
<path d="M0 0 C2.475 0.99 2.475 0.99 5 2 C3.35 4.31 1.7 6.62 0 9 C-0.66 8.67 -1.32 8.34 -2 8 C-1.47731534 5.23723823 -0.89130413 2.6739124 0 0 Z " fill="#C9DAE3" transform="translate(93,71)"/>
<path d="M0 0 C0.99 0.33 1.98 0.66 3 1 C3.33 1.99 3.66 2.98 4 4 C3.34 4 2.68 4 2 4 C1.67 4.99 1.34 5.98 1 7 C0.01 7 -0.98 7 -2 7 C-2.66 7.66 -3.32 8.32 -4 9 C-3.46930939 5.17902761 -2.50298434 2.93828597 0 0 Z " fill="#9BBFE1" transform="translate(89,12)"/>
<path d="M0 0 C2.32472205 2.85306797 3.7508258 5.54074837 5 9 C4.01 9.33 3.02 9.66 2 10 C0.68 8.35 -0.64 6.7 -2 5 C-1.34 3.35 -0.68 1.7 0 0 Z " fill="#A9C7E1" transform="translate(62,10)"/>
<path d="M0 0 C1.32 0 2.64 0 4 0 C4 1.98 4 3.96 4 6 C2.02 6.99 2.02 6.99 0 8 C0 5.36 0 2.72 0 0 Z " fill="#9FC1E2" transform="translate(70,5)"/>
<path d="M0 0 C3.82524236 1.450954 5.19090966 3.38181932 7 7 C7 7.66 7 8.32 7 9 C7.66 9 8.32 9 9 9 C9.33 9.99 9.66 10.98 10 12 C9.01 12 8.02 12 7 12 C5.17578125 9.8828125 5.17578125 9.8828125 3.3125 7.125 C2.37857422 5.76761719 2.37857422 5.76761719 1.42578125 4.3828125 C0 2 0 2 0 0 Z " fill="#A6C7E7" transform="translate(66,42)"/>
<path d="M0 0 C3 1 3 1 4.1875 2.8125 C5 5 5 5 5 9 C1.125 7.125 1.125 7.125 0 6 C-0.04080783 4.00041636 -0.04254356 1.99954746 0 0 Z " fill="#B2D0EC" transform="translate(84,71)"/>
<path d="M0 0 C3.73487777 0.4979837 5.81237635 0.87491756 9 3 C5.535 4.485 5.535 4.485 2 6 C1.34 4.02 0.68 2.04 0 0 Z " fill="#C2D5DD" transform="translate(82,46)"/>
<path d="M0 0 C2.96052484 3.36423277 3.92289822 6.69159287 5 11 C4.01 11.495 4.01 11.495 3 12 C-1.06153846 5.72307692 -1.06153846 5.72307692 -0.75 2.0625 C-0.5025 1.381875 -0.255 0.70125 0 0 Z " fill="#9BC2DC" transform="translate(111,40)"/>
<path d="M0 0 C2.93879484 1.35236577 5.29232911 2.89942659 7.75 5 C8.67039062 5.7734375 8.67039062 5.7734375 9.609375 6.5625 C11 8 11 8 11 10 C10.01 10 9.02 10 8 10 C6.72445185 8.53311963 5.45118883 7.06023134 4.28125 5.5078125 C2.88527155 3.72500021 2.88527155 3.72500021 0 2 C0 1.34 0 0.68 0 0 Z " fill="#80ABE5" transform="translate(113,31)"/>
<path d="M0 0 C2.31 0 4.62 0 7 0 C7 1.98 7 3.96 7 6 C3.535 4.02 3.535 4.02 0 2 C0 1.34 0 0.68 0 0 Z " fill="#91BBD6" transform="translate(89,31)"/>
<path d="M0 0 C1.98 0.66 3.96 1.32 6 2 C5.34 3.32 4.68 4.64 4 6 C1.525 5.01 1.525 5.01 -1 4 C-0.67 2.68 -0.34 1.36 0 0 Z " fill="#799ED3" transform="translate(95,67)"/>
<path d="M0 0 C1.98 0 3.96 0 6 0 C6 0.66 6 1.32 6 2 C5.01 2.33 4.02 2.66 3 3 C1.62804426 4.29355827 0.28817344 5.62298702 -1 7 C-1.33 6.34 -1.66 5.68 -2 5 C-1.0625 2.375 -1.0625 2.375 0 0 Z " fill="#CCE8FB" transform="translate(105,39)"/>
<path d="M0 0 C0.99 0 1.98 0 3 0 C2.34 1.65 1.68 3.3 1 5 C2.32 5.66 3.64 6.32 5 7 C2.69 7 0.38 7 -2 7 C-1.125 1.125 -1.125 1.125 0 0 Z " fill="#7193C1" transform="translate(61,20)"/>
<path d="M0 0 C4.05281712 1.22527029 7.44360764 2.69880494 11 5 C10.34 5.66 9.68 6.32 9 7 C6.03 5.35 3.06 3.7 0 2 C0 1.34 0 0.68 0 0 Z " fill="#A1AFC8" transform="translate(100,52)"/>
<path d="M0 0 C0.33 0 0.66 0 1 0 C1 2.31 1 4.62 1 7 C1.99 7.33 2.98 7.66 4 8 C1.69 8 -0.62 8 -3 8 C-2.45276317 4.62537285 -1.9451 2.91765 0 0 Z " fill="#BFE3F7" transform="translate(120,19)"/>
<path d="M0 0 C0.33 0.99 0.66 1.98 1 3 C2.32 3 3.64 3 5 3 C4.34 5.31 3.68 7.62 3 10 C2.71125 9.360625 2.4225 8.72125 2.125 8.0625 C1.17176549 5.84793921 1.17176549 5.84793921 -1 5 C-0.67 3.35 -0.34 1.7 0 0 Z " fill="#9CC1E3" transform="translate(96,34)"/>
<path d="M0 0 C0.33 0 0.66 0 1 0 C1.33 3.96 1.66 7.92 2 12 C0.68 12 -0.64 12 -2 12 C-1.85904936 10.3745692 -1.71207913 8.74965949 -1.5625 7.125 C-1.48128906 6.22007813 -1.40007813 5.31515625 -1.31640625 4.3828125 C-1 2 -1 2 0 0 Z " fill="#8FBDDD" transform="translate(56,15)"/>
<path d="M0 0 C0.99 0.33 1.98 0.66 3 1 C2.360625 2.051875 1.72125 3.10375 1.0625 4.1875 C-0.61754452 7.10828412 -1.58996052 9.6171743 -2 13 C-2.33 13 -2.66 13 -3 13 C-3.27429625 7.60550707 -3.36055646 4.48074195 0 0 Z " fill="#739FCB" transform="translate(60,9)"/>
<path d="M0 0 C0.99 0 1.98 0 3 0 C2.34 1.98 1.68 3.96 1 6 C-0.65 6 -2.3 6 -4 6 C-2.1875 3 -2.1875 3 0 0 Z " fill="#C5E4FA" transform="translate(111,6)"/>
<path d="M0 0 C0.66 0 1.32 0 2 0 C1.88637738 1.4800841 1.75877092 2.95910074 1.625 4.4375 C1.52058594 5.67306641 1.52058594 5.67306641 1.4140625 6.93359375 C1.27742188 7.61550781 1.14078125 8.29742187 1 9 C0.01 9.495 0.01 9.495 -1 10 C-1.02689216 8.52093108 -1.04634621 7.04172517 -1.0625 5.5625 C-1.07410156 4.73878906 -1.08570312 3.91507813 -1.09765625 3.06640625 C-1 1 -1 1 0 0 Z " fill="#E3F7FB" transform="translate(118,9)"/>
<path d="M0 0 C0.33 0.66 0.66 1.32 1 2 C1.61875 2.12375 2.2375 2.2475 2.875 2.375 C5.67393003 3.19821471 6.45280415 4.60184644 8 7 C6.02 7.99 6.02 7.99 4 9 C3.71125 8.195625 3.4225 7.39125 3.125 6.5625 C2.26737432 3.8673532 2.26737432 3.8673532 0 3 C0 2.01 0 1.02 0 0 Z " fill="#C4DDF2" transform="translate(98,57)"/>
<path d="M0 0 C3.0831351 1.19899698 6.06279492 2.47700477 9 4 C9 4.66 9 5.32 9 6 C5.33118845 5.29445932 2.29549466 3.72264494 -1 2 C-0.67 1.34 -0.34 0.68 0 0 Z " fill="#B8C5D4" transform="translate(100,54)"/>
<path d="M0 0 C3.4375 1.3125 3.4375 1.3125 7 3 C7.33 3.99 7.66 4.98 8 6 C6.35 5.67 4.7 5.34 3 5 C2.67 4.01 2.34 3.02 2 2 C1.34 2 0.68 2 0 2 C0 1.34 0 0.68 0 0 Z " fill="#C6E7F9" transform="translate(73,49)"/>
<path d="M0 0 C2.64 0.33 5.28 0.66 8 1 C8.33 2.32 8.66 3.64 9 5 C4.545 3.02 4.545 3.02 0 1 C0 0.67 0 0.34 0 0 Z " fill="#7D9EC9" transform="translate(73,55)"/>
<path d="M0 0 C1.8125 0.1875 1.8125 0.1875 4 1 C5.8125 3.4375 5.8125 3.4375 7 6 C6.67 6.66 6.34 7.32 6 8 C5.38125 7.360625 4.7625 6.72125 4.125 6.0625 C2.17402388 3.96116416 2.17402388 3.96116416 0 3 C0 2.01 0 1.02 0 0 Z " fill="#7597C8" transform="translate(122,17)"/>
<path d="M0 0 C4.21422242 2.88341534 5.76075855 5.04303419 7 10 C3.60582235 6.87378374 1.3937282 4.43458973 0 0 Z " fill="#7D9FCA" transform="translate(61,37)"/>
<path d="M0 0 C2.3125 -0.25 2.3125 -0.25 5 0 C6.8125 2 6.8125 2 8 4 C7.01 4.33 6.02 4.66 5 5 C4.34 4.67 3.68 4.34 3 4 C3 3.34 3 2.68 3 2 C2.01 2 1.02 2 0 2 C0 1.34 0 0.68 0 0 Z " fill="#ADD0EE" transform="translate(108,31)"/>
<path d="M0 0 C0 1.32 0 2.64 0 4 C-2.31 3.67 -4.62 3.34 -7 3 C-3.375 0 -3.375 0 0 0 Z " fill="#87B4DB" transform="translate(92,49)"/>
<path d="M0 0 C1.98 0.495 1.98 0.495 4 1 C3.67 2.65 3.34 4.3 3 6 C1.68 5.01 0.36 4.02 -1 3 C-0.67 2.01 -0.34 1.02 0 0 Z " fill="#9AC2E4" transform="translate(53,34)"/>
<path d="M0 0 C0.33 0 0.66 0 1 0 C1 1.65 1 3.3 1 5 C-0.65 5.33 -2.3 5.66 -4 6 C-1.125 1.125 -1.125 1.125 0 0 Z " fill="#6894D6" transform="translate(84,19)"/>
<path d="M0 0 C1.65 1.65 3.3 3.3 5 5 C4.67 5.66 4.34 6.32 4 7 C3.01 6.67 2.02 6.34 1 6 C0.67 4.02 0.34 2.04 0 0 Z " fill="#E2F9FD" transform="translate(96,20)"/>
<path d="M0 0 C0.598125 0.20625 1.19625 0.4125 1.8125 0.625 C0.8225 2.11 0.8225 2.11 -0.1875 3.625 C-2.8125 3.8125 -2.8125 3.8125 -5.1875 3.625 C-5.1875 2.965 -5.1875 2.305 -5.1875 1.625 C-2.1875 -0.375 -2.1875 -0.375 0 0 Z " fill="#A7C8DE" transform="translate(81.1875,13.375)"/>
<path d="M0 0 C1.65 0 3.3 0 5 0 C4.6875 1.9375 4.6875 1.9375 4 4 C3.01 4.33 2.02 4.66 1 5 C0.67 3.35 0.34 1.7 0 0 Z " fill="#D2F5FC" transform="translate(83,5)"/>
<path d="M0 0 C2.475 0.495 2.475 0.495 5 1 C5 2.32 5 3.64 5 5 C2.525 4.01 2.525 4.01 0 3 C0 2.01 0 1.02 0 0 Z " fill="#B2CEEA" transform="translate(97,60)"/>
<path d="M0 0 C2.475 0.99 2.475 0.99 5 2 C4.67 2.99 4.34 3.98 4 5 C2.02 4.01 0.04 3.02 -2 2 C-1.34 1.34 -0.68 0.68 0 0 Z " fill="#95B0CE" transform="translate(78,58)"/>
</svg>
