<svg xmlns="http://www.w3.org/2000/svg" shape-rendering="geometricPrecision" height="20" text-rendering="geometricPrecision" image-rendering="optimizeQuality" fill-rule="evenodd" clip-rule="evenodd" viewBox="0 0 512 438.89">
  <path d="M346.34 216.95c30.62 0 58.39 12.45 78.46 32.52 20.06 20.07 32.51 47.83 32.51 78.45 0 30.62-12.45 58.39-32.51 78.46-20.07 20.07-47.84 32.51-78.46 32.51-30.62 0-58.39-12.44-78.45-32.51-20.07-20.07-32.52-47.84-32.52-78.46 0-30.62 12.45-58.38 32.52-78.45 20.06-20.07 47.83-32.52 78.45-32.52zM99.44 46.99l69.16 81.05-18.67 16.01L80.77 63l18.67-16.01zm89.28 349.23h33.42c4.88 8.84 10.69 17.1 17.28 24.68h-75.38V239.95L12.1 61.85C5.95 53.8 2.28 45.93.78 38.73c-1.59-7.83-.71-15 2.33-21.1 3.17-6.3 8.43-11.2 15.44-14.22C24.35.97 31.37-.27 39.3.05L478.56.02c7.14.09 13.1 1.36 17.9 3.61 6.99 3.27 11.61 8.46 13.92 14.9 2.09 5.82 2.12 12.38.33 19.1-1.9 7.13-6.03 14.87-12.02 22.31l-111.42 132.2c-8.86-2.67-18.09-4.48-27.58-5.38L479.55 44.55c3.75-4.73 6.32-9.33 7.36-13.29.53-1.99.65-3.55.34-4.46-.1-.27-.51-.6-1.19-.92-1.66-.77-4.17-1.23-7.5-1.24H38.72c-4.38-.22-7.91.28-10.44 1.37-1.61.73-2.7 1.63-3.19 2.6-.59 1.16-.69 2.92-.25 5.12.77 3.65 2.94 8.06 6.71 13.04l154.17 180.69 3 8v160.76zm-4.47-249.84 24.45 28.66-18.68 16.01-24.45-28.66 18.68-16.01zm130.67 160 21.01 19.95 39.27-39.88c3.67-3.73 5.94-6.68 10.49-2.06l14.67 15.02c4.79 4.75 4.55 7.53 0 11.98l-56.08 55.12c-9.56 9.39-7.91 9.98-17.61.32l-36.46-36.24c-2-2.18-1.79-4.41.4-6.61l17.02-17.63c2.59-2.68 4.64-2.51 7.29.03z" fill="white"/>
</svg>
